<svg width="24" height="24" viewBox="0 0 24 24" fill="none" xmlns="http://www.w3.org/2000/svg">
<path d="M14.25 18.8461V14.497C14.25 14.3048 14.171 14.1204 14.0303 13.9845C13.8897 13.8485 13.6989 13.7722 13.5 13.7722H10.5C10.3011 13.7722 10.1103 13.8485 9.96967 13.9845C9.82902 14.1204 9.75 14.3048 9.75 14.497V18.8461C9.75 19.0383 9.67098 19.2227 9.53033 19.3586C9.38968 19.4946 9.19891 19.5709 9 19.5709H4.5C4.30109 19.5709 4.11032 19.4946 3.96967 19.3586C3.82902 19.2227 3.75 19.0383 3.75 18.8461V10.4651C3.75168 10.3647 3.77411 10.2658 3.81597 10.174C3.85783 10.0821 3.91828 9.99936 3.99375 9.93048L11.4937 3.34342C11.632 3.22118 11.8126 3.15338 12 3.15338C12.1874 3.15338 12.368 3.22118 12.5062 3.34342L20.0062 9.93048C20.0817 9.99936 20.1422 10.0821 20.184 10.174C20.2259 10.2658 20.2483 10.3647 20.25 10.4651V18.8461C20.25 19.0383 20.171 19.2227 20.0303 19.3586C19.8897 19.4946 19.6989 19.5709 19.5 19.5709H15C14.8011 19.5709 14.6103 19.4946 14.4697 19.3586C14.329 19.2227 14.25 19.0383 14.25 18.8461Z" stroke="black" stroke-width="1.5" stroke-linecap="round" stroke-linejoin="round"/>
</svg>
