<svg width="24" height="24" viewBox="0 0 24 24" fill="none" xmlns="http://www.w3.org/2000/svg">
<path d="M12 19.5707C12 19.5707 2.625 14.4967 2.625 8.33554C2.625 7.24635 3.01546 6.19081 3.72996 5.3485C4.44445 4.50618 5.43884 3.92913 6.54393 3.71553C7.64903 3.50192 8.79657 3.66495 9.79131 4.17688C10.7861 4.68881 11.5665 5.51802 12 6.52342V6.52342C12.4335 5.51802 13.2139 4.68881 14.2087 4.17688C15.2034 3.66495 16.351 3.50192 17.4561 3.71553C18.5612 3.92913 19.5555 4.50618 20.27 5.3485C20.9845 6.19081 21.375 7.24635 21.375 8.33554C21.375 14.4967 12 19.5707 12 19.5707Z" stroke="black" stroke-width="1.5" stroke-linecap="round" stroke-linejoin="round"/>
</svg>
