<svg width="33" height="33" viewBox="0 0 33 33" fill="none" xmlns="http://www.w3.org/2000/svg">
<path d="M6.60547 18.0011V26.5511C6.60547 26.8163 6.71083 27.0707 6.89836 27.2582C7.0859 27.4457 7.34025 27.5511 7.60547 27.5511H25.6055C25.8707 27.5511 26.125 27.4457 26.3126 27.2582C26.5001 27.0707 26.6055 26.8163 26.6055 26.5511V18.0011" stroke="black" stroke-width="2" stroke-linecap="round" stroke-linejoin="round"/>
<path d="M7.35547 5.55109H25.8555C26.0724 5.55287 26.283 5.62429 26.4563 5.75481C26.6296 5.88534 26.7564 6.06807 26.818 6.27609L28.6055 12.5511H4.60547L6.39297 6.27609C6.45456 6.06807 6.58134 5.88534 6.75462 5.75481C6.92791 5.62429 7.13853 5.55287 7.35547 5.55109V5.55109Z" stroke="black" stroke-width="2" stroke-linecap="round" stroke-linejoin="round"/>
<path d="M12.6055 12.5511V14.5511C12.6055 15.612 12.184 16.6294 11.4339 17.3795C10.6838 18.1297 9.66633 18.5511 8.60547 18.5511C7.5446 18.5511 6.52719 18.1297 5.77704 17.3795C5.0269 16.6294 4.60547 15.612 4.60547 14.5511V12.5511" stroke="black" stroke-width="2" stroke-linecap="round" stroke-linejoin="round"/>
<path d="M20.6055 12.5511V14.5511C20.6055 15.612 20.184 16.6294 19.4339 17.3795C18.6837 18.1297 17.6663 18.5511 16.6055 18.5511C15.5446 18.5511 14.5272 18.1297 13.777 17.3795C13.0269 16.6294 12.6055 15.612 12.6055 14.5511V12.5511" stroke="black" stroke-width="2" stroke-linecap="round" stroke-linejoin="round"/>
<path d="M28.6055 12.5511V14.5511C28.6055 15.612 28.184 16.6294 27.4339 17.3795C26.6837 18.1297 25.6663 18.5511 24.6055 18.5511C23.5446 18.5511 22.5272 18.1297 21.777 17.3795C21.0269 16.6294 20.6055 15.612 20.6055 14.5511V12.5511" stroke="black" stroke-width="2" stroke-linecap="round" stroke-linejoin="round"/>
</svg>
