<svg width="33" height="33" viewBox="0 0 33 33" fill="none" xmlns="http://www.w3.org/2000/svg">
<path d="M12.6055 9.55109C12.6055 8.49022 13.0269 7.4728 13.777 6.72266C14.5272 5.97251 15.5446 5.55109 16.6055 5.55109C17.6663 5.55109 18.6837 5.97251 19.4339 6.72266C20.184 7.4728 20.6055 8.49022 20.6055 9.55109L3.00547 22.7511C2.83756 22.877 2.71354 23.0526 2.65096 23.2529C2.58838 23.4533 2.59041 23.6682 2.65679 23.8673C2.72316 24.0664 2.85049 24.2396 3.02076 24.3623C3.19102 24.485 3.39559 24.5511 3.60547 24.5511H29.6055C29.8154 24.5511 30.0199 24.485 30.1902 24.3623C30.3604 24.2396 30.4878 24.0664 30.5542 23.8673C30.6205 23.6682 30.6226 23.4533 30.56 23.2529C30.4974 23.0526 30.3734 22.877 30.2055 22.7511L16.6055 12.5511" stroke="black" stroke-width="2" stroke-linecap="round" stroke-linejoin="round"/>
</svg>
