<svg width="33" height="33" viewBox="0 0 33 33" fill="none" xmlns="http://www.w3.org/2000/svg">
<path d="M16.8872 9.91113C18.8202 9.91113 20.3872 8.34413 20.3872 6.41113C20.3872 4.47814 18.8202 2.91113 16.8872 2.91113C14.9542 2.91113 13.3872 4.47814 13.3872 6.41113C13.3872 8.34413 14.9542 9.91113 16.8872 9.91113Z" stroke="black" stroke-width="2" stroke-linecap="round" stroke-linejoin="round"/>
<path d="M20.1374 17.7486L24.4874 21.1236C24.775 21.363 25.1416 21.4863 25.5154 21.4692C25.8892 21.4521 26.2431 21.296 26.5077 21.0314C26.7723 20.7668 26.9284 20.4129 26.9455 20.0392C26.9625 19.6654 26.8393 19.2987 26.5999 19.0111L21.6499 12.6486C21.4192 12.4156 21.1448 12.2305 20.8423 12.1039C20.5398 11.9774 20.2153 11.9118 19.8874 11.9111H13.8874C13.2219 11.9147 12.5845 12.1796 12.1124 12.6486L7.16241 19.0111C6.90467 19.2972 6.76683 19.6715 6.77742 20.0564C6.78802 20.4413 6.94624 20.8074 7.21933 21.0789C7.49242 21.3504 7.85945 21.5064 8.24443 21.5148C8.6294 21.5231 9.00284 21.3831 9.28741 21.1236L13.6374 17.7486L10.1624 28.6986C10.0787 28.8776 10.031 29.0712 10.0222 29.2686C10.0133 29.4659 10.0434 29.6631 10.1107 29.8488C10.178 30.0345 10.2813 30.2051 10.4145 30.351C10.5478 30.4968 10.7085 30.6149 10.8874 30.6986C11.0663 30.7824 11.26 30.83 11.4573 30.8389C11.6547 30.8478 11.8518 30.8177 12.0376 30.7503C12.2233 30.683 12.3939 30.5798 12.5397 30.4465C12.6855 30.3132 12.8037 30.1526 12.8874 29.9736L16.8874 23.6736L20.8874 29.9736C20.9655 30.1604 21.0807 30.3294 21.2258 30.4704C21.371 30.6115 21.5432 30.7217 21.7322 30.7945C21.9211 30.8672 22.1227 30.9009 22.325 30.8937C22.5273 30.8864 22.7261 30.8383 22.9093 30.7522C23.0924 30.666 23.2563 30.5437 23.391 30.3926C23.5257 30.2415 23.6284 30.0647 23.6929 29.8728C23.7574 29.6809 23.7825 29.478 23.7665 29.2762C23.7505 29.0744 23.6938 28.8779 23.5999 28.6986L20.1374 17.7486Z" stroke="black" stroke-width="2" stroke-linecap="round" stroke-linejoin="round"/>
</svg>
