<?xml version="1.0" encoding="utf-8"?>
<!-- Generator: Adobe Illustrator 26.3.1, SVG Export Plug-In . SVG Version: 6.00 Build 0)  -->
<svg version="1.1" id="_イヤー_1" xmlns="http://www.w3.org/2000/svg" xmlns:xlink="http://www.w3.org/1999/xlink" x="0px"
	 y="0px" viewBox="0 0 33.5 45" style="enable-background:new 0 0 33.5 45;" xml:space="preserve">
<style type="text/css">
	.st0{fill:#FFFFFF;stroke:#040000;stroke-width:2;stroke-miterlimit:10;}
</style>
<path class="st0" d="M2.1,10.1l7.2-4.3c1.6-1,3.7-0.5,4.7,1.2l16.7,27.8c1,1.6,0.5,3.7-1.2,4.7l-7.2,4.3c-1.6,1-3.7,0.5-4.7-1.2
	L1,14.8C0,13.2,0.5,11.1,2.1,10.1z"/>
<path class="st0" d="M10,4.8l8.2-2.6C20,1.6,22,2.7,22.6,4.5l10.3,32.3c0.6,1.9-0.4,3.8-2.3,4.4l-8.2,2.6c-1.9,0.6-3.8-0.4-4.4-2.3
	L7.7,9.3C7.1,7.4,8.1,5.4,10,4.8z"/>
<path class="st0" d="M20.7,0.5h8.6c2,0,3.7,1.7,3.7,3.7v36.6c0,2-1.7,3.7-3.7,3.7h-8.6c-2,0-3.7-1.7-3.7-3.7V4.2
	C17,2.2,18.6,0.5,20.7,0.5z"/>
<path class="st0" d="M21.5,4.5h6.9c0.6,0,1,0.5,1,1v3.9c0,0.6-0.5,1-1,1h-6.9c-0.6,0-1-0.5-1-1V5.5C20.5,5,20.9,4.5,21.5,4.5z"/>
<path class="st0" d="M21.5,23.5h6.9c0.6,0,1,0.5,1,1v3.9c0,0.6-0.5,1-1,1h-6.9c-0.6,0-1-0.5-1-1v-3.9C20.5,24,20.9,23.5,21.5,23.5z"
	/>
<path class="st0" d="M21.5,14h6.9c0.6,0,1,0.5,1,1V19c0,0.6-0.5,1-1,1h-6.9c-0.6,0-1-0.5-1-1V15C20.5,14.5,20.9,14,21.5,14z"/>
<circle class="st0" cx="25" cy="37" r="1.5"/>
</svg>
