<svg width="33" height="33" viewBox="0 0 33 33" fill="none" xmlns="http://www.w3.org/2000/svg">
<path d="M4.81426 22.2567L7.83926 5.11922C7.8604 4.98988 7.90708 4.86604 7.97657 4.75492C8.04606 4.6438 8.13697 4.54763 8.24401 4.472C8.35105 4.39638 8.47207 4.34282 8.60002 4.31444C8.72797 4.28606 8.86028 4.28344 8.98926 4.30672L15.8893 5.51922C16.15 5.56797 16.3811 5.71706 16.5331 5.93444C16.685 6.15183 16.7456 6.42015 16.7018 6.68172L13.6643 23.9192C13.4562 25.0799 12.8022 26.1131 11.842 26.7976C10.8818 27.4821 9.69184 27.7635 8.52676 27.5817C6.03926 27.1817 4.37676 24.7442 4.81426 22.2567Z" stroke="black" stroke-width="2" stroke-linecap="round" stroke-linejoin="round"/>
<path d="M15.0144 16.2318L24.1269 12.9193C24.2508 12.8736 24.3825 12.8528 24.5145 12.8583C24.6464 12.8637 24.776 12.8952 24.8957 12.951C25.0154 13.0068 25.1229 13.0857 25.2119 13.1833C25.3009 13.2808 25.3698 13.395 25.4144 13.5193L27.8144 20.0943C27.9029 20.343 27.8895 20.6166 27.7771 20.8555C27.6647 21.0943 27.4624 21.279 27.2144 21.3693L10.7644 27.3568" stroke="black" stroke-width="2" stroke-linecap="round" stroke-linejoin="round"/>
<path d="M27.7268 20.9443V26.6318C27.7268 26.8971 27.6215 27.1514 27.4339 27.3389C27.2464 27.5265 26.992 27.6318 26.7268 27.6318H9.22681" stroke="black" stroke-width="2" stroke-linecap="round" stroke-linejoin="round"/>
<path d="M9.22681 24.6318C10.0552 24.6318 10.7268 23.9603 10.7268 23.1318C10.7268 22.3034 10.0552 21.6318 9.22681 21.6318C8.39838 21.6318 7.72681 22.3034 7.72681 23.1318C7.72681 23.9603 8.39838 24.6318 9.22681 24.6318Z" fill="black"/>
</svg>
