<svg width="32" height="32" viewBox="0 0 32 32" fill="none" xmlns="http://www.w3.org/2000/svg">
<path d="M27.7 18.6751C27.9073 17.7648 28.008 16.8336 28 15.9001C27.95 9.28755 22.475 3.93755 15.875 4.00005C13.0554 4.02979 10.3363 5.05147 8.19484 6.88586C6.05337 8.72025 4.62626 11.2502 4.16391 14.0317C3.70155 16.8133 4.23349 19.6689 5.66639 22.0974C7.09928 24.5259 9.34161 26.3723 12 27.3126C12.4522 27.4755 12.937 27.5268 13.4133 27.4624C13.8896 27.3979 14.3433 27.2194 14.7359 26.9421C15.1285 26.6649 15.4485 26.2969 15.6685 25.8696C15.8886 25.4423 16.0023 24.9682 16 24.4876V24.0001C15.9983 23.6056 16.0748 23.2148 16.225 22.85C16.3751 22.4853 16.596 22.154 16.875 21.875C17.1539 21.5961 17.4852 21.3752 17.85 21.225C18.2147 21.0749 18.6055 20.9984 19 21.0001H24.775C25.4536 21.0005 26.1124 20.7708 26.6436 20.3485C27.1749 19.9262 27.5473 19.3363 27.7 18.6751V18.6751Z" stroke="black" stroke-width="2" stroke-linecap="round" stroke-linejoin="round"/>
<path d="M16 11C16.8284 11 17.5 10.3284 17.5 9.5C17.5 8.67157 16.8284 8 16 8C15.1716 8 14.5 8.67157 14.5 9.5C14.5 10.3284 15.1716 11 16 11Z" fill="black"/>
<path d="M10.375 14.25C11.2034 14.25 11.875 13.5784 11.875 12.75C11.875 11.9216 11.2034 11.25 10.375 11.25C9.54657 11.25 8.875 11.9216 8.875 12.75C8.875 13.5784 9.54657 14.25 10.375 14.25Z" fill="black"/>
<path d="M10.375 20.75C11.2034 20.75 11.875 20.0784 11.875 19.25C11.875 18.4216 11.2034 17.75 10.375 17.75C9.54657 17.75 8.875 18.4216 8.875 19.25C8.875 20.0784 9.54657 20.75 10.375 20.75Z" fill="black"/>
<path d="M21.625 14.25C22.4534 14.25 23.125 13.5784 23.125 12.75C23.125 11.9216 22.4534 11.25 21.625 11.25C20.7966 11.25 20.125 11.9216 20.125 12.75C20.125 13.5784 20.7966 14.25 21.625 14.25Z" fill="black"/>
</svg>
